<mxfile host="app.diagrams.net" modified="2023-06-30T20:43:02.899Z" agent="Mozilla/5.0 (Macintosh; Intel Mac OS X 10.15; rv:109.0) Gecko/20100101 Firefox/110.0" etag="NvYZwONr1-_IV1Xts1Nf" version="21.5.2" type="device">
  <diagram name="Page-1" id="WW2F8FBkbMgzVasLmIVd">
    <mxGraphModel dx="828" dy="736" grid="1" gridSize="10" guides="1" tooltips="1" connect="1" arrows="1" fold="1" page="1" pageScale="1" pageWidth="850" pageHeight="1100" math="0" shadow="0">
      <root>
        <mxCell id="0" />
        <mxCell id="1" parent="0" />
        <mxCell id="9XoVgLKwklyH2Q-Ll54Z-7" value="" style="edgeStyle=orthogonalEdgeStyle;rounded=0;orthogonalLoop=1;jettySize=auto;html=1;" edge="1" parent="1" source="9XoVgLKwklyH2Q-Ll54Z-5" target="9XoVgLKwklyH2Q-Ll54Z-6">
          <mxGeometry relative="1" as="geometry" />
        </mxCell>
        <mxCell id="9XoVgLKwklyH2Q-Ll54Z-5" value="parsing start" style="rounded=1;whiteSpace=wrap;html=1;fillColor=#1ba1e2;fontColor=#ffffff;strokeColor=#006EAF;arcSize=8;" vertex="1" parent="1">
          <mxGeometry x="40" y="80" width="120" height="80" as="geometry" />
        </mxCell>
        <mxCell id="9XoVgLKwklyH2Q-Ll54Z-10" value="" style="edgeStyle=orthogonalEdgeStyle;rounded=0;orthogonalLoop=1;jettySize=auto;html=1;" edge="1" parent="1" source="9XoVgLKwklyH2Q-Ll54Z-6" target="9XoVgLKwklyH2Q-Ll54Z-9">
          <mxGeometry relative="1" as="geometry" />
        </mxCell>
        <mxCell id="9XoVgLKwklyH2Q-Ll54Z-12" value="" style="edgeStyle=orthogonalEdgeStyle;rounded=0;orthogonalLoop=1;jettySize=auto;html=1;startArrow=classic;startFill=1;" edge="1" parent="1" source="9XoVgLKwklyH2Q-Ll54Z-6">
          <mxGeometry relative="1" as="geometry">
            <mxPoint x="320" y="300" as="targetPoint" />
            <Array as="points">
              <mxPoint x="100" y="300" />
              <mxPoint x="320" y="300" />
            </Array>
          </mxGeometry>
        </mxCell>
        <mxCell id="9XoVgLKwklyH2Q-Ll54Z-6" value="check for pipes" style="whiteSpace=wrap;html=1;rounded=1;arcSize=8;fillColor=#e3c800;fontColor=#000000;strokeColor=#B09500;" vertex="1" parent="1">
          <mxGeometry x="40" y="190" width="120" height="80" as="geometry" />
        </mxCell>
        <mxCell id="9XoVgLKwklyH2Q-Ll54Z-16" value="" style="edgeStyle=orthogonalEdgeStyle;rounded=0;orthogonalLoop=1;jettySize=auto;html=1;" edge="1" parent="1" source="9XoVgLKwklyH2Q-Ll54Z-9" target="9XoVgLKwklyH2Q-Ll54Z-15">
          <mxGeometry relative="1" as="geometry">
            <Array as="points">
              <mxPoint x="690" y="160" />
            </Array>
          </mxGeometry>
        </mxCell>
        <mxCell id="9XoVgLKwklyH2Q-Ll54Z-47" style="edgeStyle=orthogonalEdgeStyle;rounded=0;orthogonalLoop=1;jettySize=auto;html=1;" edge="1" parent="1" source="9XoVgLKwklyH2Q-Ll54Z-9" target="9XoVgLKwklyH2Q-Ll54Z-33">
          <mxGeometry relative="1" as="geometry" />
        </mxCell>
        <mxCell id="9XoVgLKwklyH2Q-Ll54Z-48" style="edgeStyle=orthogonalEdgeStyle;rounded=0;orthogonalLoop=1;jettySize=auto;html=1;" edge="1" parent="1" source="9XoVgLKwklyH2Q-Ll54Z-9" target="9XoVgLKwklyH2Q-Ll54Z-23">
          <mxGeometry relative="1" as="geometry" />
        </mxCell>
        <mxCell id="9XoVgLKwklyH2Q-Ll54Z-50" style="edgeStyle=orthogonalEdgeStyle;rounded=0;orthogonalLoop=1;jettySize=auto;html=1;" edge="1" parent="1" source="9XoVgLKwklyH2Q-Ll54Z-9" target="9XoVgLKwklyH2Q-Ll54Z-36">
          <mxGeometry relative="1" as="geometry" />
        </mxCell>
        <mxCell id="9XoVgLKwklyH2Q-Ll54Z-9" value="check for redirects" style="whiteSpace=wrap;html=1;rounded=1;arcSize=8;fillColor=#e3c800;fontColor=#000000;strokeColor=#B09500;" vertex="1" parent="1">
          <mxGeometry x="360" y="120" width="120" height="80" as="geometry" />
        </mxCell>
        <mxCell id="9XoVgLKwklyH2Q-Ll54Z-24" value="" style="edgeStyle=orthogonalEdgeStyle;rounded=0;orthogonalLoop=1;jettySize=auto;html=1;" edge="1" parent="1" source="9XoVgLKwklyH2Q-Ll54Z-6" target="9XoVgLKwklyH2Q-Ll54Z-23">
          <mxGeometry relative="1" as="geometry">
            <mxPoint x="160" y="380" as="sourcePoint" />
            <Array as="points">
              <mxPoint x="260" y="230" />
              <mxPoint x="260" y="380" />
              <mxPoint x="420" y="380" />
            </Array>
          </mxGeometry>
        </mxCell>
        <mxCell id="9XoVgLKwklyH2Q-Ll54Z-18" value="" style="edgeStyle=orthogonalEdgeStyle;rounded=0;orthogonalLoop=1;jettySize=auto;html=1;" edge="1" parent="1" source="9XoVgLKwklyH2Q-Ll54Z-15" target="9XoVgLKwklyH2Q-Ll54Z-17">
          <mxGeometry relative="1" as="geometry" />
        </mxCell>
        <mxCell id="9XoVgLKwklyH2Q-Ll54Z-28" style="edgeStyle=orthogonalEdgeStyle;rounded=0;orthogonalLoop=1;jettySize=auto;html=1;entryX=0.5;entryY=0;entryDx=0;entryDy=0;exitX=0;exitY=1;exitDx=0;exitDy=0;" edge="1" parent="1" source="9XoVgLKwklyH2Q-Ll54Z-15" target="9XoVgLKwklyH2Q-Ll54Z-23">
          <mxGeometry relative="1" as="geometry">
            <Array as="points">
              <mxPoint x="420" y="380" />
            </Array>
          </mxGeometry>
        </mxCell>
        <mxCell id="9XoVgLKwklyH2Q-Ll54Z-29" value="if error returned" style="edgeLabel;html=1;align=center;verticalAlign=middle;resizable=0;points=[];" vertex="1" connectable="0" parent="9XoVgLKwklyH2Q-Ll54Z-28">
          <mxGeometry x="0.8305" y="1" relative="1" as="geometry">
            <mxPoint as="offset" />
          </mxGeometry>
        </mxCell>
        <mxCell id="9XoVgLKwklyH2Q-Ll54Z-30" style="edgeStyle=orthogonalEdgeStyle;rounded=0;orthogonalLoop=1;jettySize=auto;html=1;exitX=0.75;exitY=1;exitDx=0;exitDy=0;" edge="1" parent="1" source="9XoVgLKwklyH2Q-Ll54Z-15" target="9XoVgLKwklyH2Q-Ll54Z-19">
          <mxGeometry relative="1" as="geometry" />
        </mxCell>
        <mxCell id="9XoVgLKwklyH2Q-Ll54Z-15" value="check cmd" style="whiteSpace=wrap;html=1;rounded=1;arcSize=8;fillColor=#e3c800;fontColor=#000000;strokeColor=#B09500;" vertex="1" parent="1">
          <mxGeometry x="660" y="350" width="120" height="80" as="geometry" />
        </mxCell>
        <mxCell id="9XoVgLKwklyH2Q-Ll54Z-17" value="check for $ token" style="whiteSpace=wrap;html=1;rounded=1;arcSize=8;fillColor=#e3c800;fontColor=#000000;strokeColor=#B09500;" vertex="1" parent="1">
          <mxGeometry x="710" y="150" width="120" height="80" as="geometry" />
        </mxCell>
        <mxCell id="9XoVgLKwklyH2Q-Ll54Z-44" style="edgeStyle=orthogonalEdgeStyle;rounded=0;orthogonalLoop=1;jettySize=auto;html=1;" edge="1" parent="1" source="9XoVgLKwklyH2Q-Ll54Z-19" target="9XoVgLKwklyH2Q-Ll54Z-42">
          <mxGeometry relative="1" as="geometry" />
        </mxCell>
        <mxCell id="9XoVgLKwklyH2Q-Ll54Z-19" value="check built-in" style="whiteSpace=wrap;html=1;rounded=1;arcSize=8;fillColor=#e3c800;fontColor=#000000;strokeColor=#B09500;" vertex="1" parent="1">
          <mxGeometry x="650" y="520" width="120" height="80" as="geometry" />
        </mxCell>
        <mxCell id="9XoVgLKwklyH2Q-Ll54Z-23" value="call error" style="whiteSpace=wrap;html=1;rounded=1;arcSize=8;fillColor=#e3c800;fontColor=#000000;strokeColor=#B09500;" vertex="1" parent="1">
          <mxGeometry x="230" y="550" width="120" height="80" as="geometry" />
        </mxCell>
        <mxCell id="9XoVgLKwklyH2Q-Ll54Z-49" style="edgeStyle=orthogonalEdgeStyle;rounded=0;orthogonalLoop=1;jettySize=auto;html=1;entryX=0.5;entryY=0;entryDx=0;entryDy=0;" edge="1" parent="1" source="9XoVgLKwklyH2Q-Ll54Z-33" target="9XoVgLKwklyH2Q-Ll54Z-23">
          <mxGeometry relative="1" as="geometry" />
        </mxCell>
        <mxCell id="9XoVgLKwklyH2Q-Ll54Z-33" value="open fd (in before out)" style="rounded=1;whiteSpace=wrap;html=1;fillColor=#e3c800;fontColor=#000000;strokeColor=#B09500;arcSize=11;" vertex="1" parent="1">
          <mxGeometry x="320" y="250" width="120" height="80" as="geometry" />
        </mxCell>
        <mxCell id="9XoVgLKwklyH2Q-Ll54Z-40" value="" style="edgeStyle=orthogonalEdgeStyle;rounded=0;orthogonalLoop=1;jettySize=auto;html=1;" edge="1" parent="1" source="9XoVgLKwklyH2Q-Ll54Z-36" target="9XoVgLKwklyH2Q-Ll54Z-39">
          <mxGeometry relative="1" as="geometry" />
        </mxCell>
        <mxCell id="9XoVgLKwklyH2Q-Ll54Z-36" value="check for multiple redirects" style="rounded=1;whiteSpace=wrap;html=1;fillColor=#e3c800;fontColor=#000000;strokeColor=#B09500;arcSize=11;" vertex="1" parent="1">
          <mxGeometry x="530" y="240" width="120" height="80" as="geometry" />
        </mxCell>
        <mxCell id="9XoVgLKwklyH2Q-Ll54Z-43" value="" style="edgeStyle=orthogonalEdgeStyle;rounded=0;orthogonalLoop=1;jettySize=auto;html=1;" edge="1" parent="1" source="9XoVgLKwklyH2Q-Ll54Z-39" target="9XoVgLKwklyH2Q-Ll54Z-42">
          <mxGeometry relative="1" as="geometry" />
        </mxCell>
        <mxCell id="9XoVgLKwklyH2Q-Ll54Z-39" value="&lt;div&gt;send only last redirect for exec&lt;/div&gt;" style="rounded=1;whiteSpace=wrap;html=1;fillColor=#e3c800;fontColor=#000000;strokeColor=#B09500;arcSize=11;" vertex="1" parent="1">
          <mxGeometry x="530" y="690" width="120" height="80" as="geometry" />
        </mxCell>
        <mxCell id="9XoVgLKwklyH2Q-Ll54Z-42" value="send to exec" style="rounded=1;whiteSpace=wrap;html=1;fillColor=#6a00ff;fontColor=#ffffff;strokeColor=#3700CC;arcSize=11;" vertex="1" parent="1">
          <mxGeometry x="710" y="690" width="120" height="80" as="geometry" />
        </mxCell>
      </root>
    </mxGraphModel>
  </diagram>
</mxfile>
